HIERARCHY
ROOT Hips
{
  OFFSET -965.57 96.3 -505.213
  CHANNELS 6 Xposition Yposition Zposition Zrotation Xrotation Yrotation
  JOINT RightUpLeg
  {
    OFFSET -8.9458 -8.66707 0.101652
    CHANNELS 3 Zrotation Xrotation Yrotation
    JOINT RightLeg
    {
      OFFSET 0 -44.4227 1.3727
      CHANNELS 3 Zrotation Xrotation Yrotation
      JOINT RightFoot
      {
        OFFSET 0.253549 -42.0924 -1.46059
        CHANNELS 3 Zrotation Xrotation Yrotation
        JOINT RightToes
        {
          OFFSET 0.04 -4.41509 8.4991
          CHANNELS 3 Zrotation Xrotation Yrotation
          End Site
          {
            OFFSET -0.08 -0.137448 9.77979
          }
        }
      }
    }
  }
  JOINT Spine
  {
    OFFSET 0 11.8905 0
    CHANNELS 3 Zrotation Xrotation Yrotation
    JOINT Spine1
    {
      OFFSET 0 25.6574 0.127663
      CHANNELS 3 Zrotation Xrotation Yrotation
      JOINT HEad
      {
        OFFSET 0 8.73416 0.011341
        CHANNELS 3 Zrotation Xrotation Yrotation
        End Site
        {
          OFFSET -0.29 12.7742 2.51395
        }
      }
      JOINT LeftShoulder1
      {
        OFFSET 8.99 -0.362252 -0.22
        CHANNELS 3 Zrotation Xrotation Yrotation
        JOINT LeftArm
        {
          OFFSET 10.2827 -0.00338 0.322123
          CHANNELS 3 Zrotation Xrotation Yrotation
          JOINT LeftForeArm
          {
            OFFSET 32.7669 0.099144 -1.42434
            CHANNELS 3 Zrotation Xrotation Yrotation
            JOINT LeftHand
            {
              OFFSET 27.5643 0.085362 1.02216
              CHANNELS 3 Zrotation Xrotation Yrotation
              End Site
              {
                OFFSET 16.7443 -0.6 1.50291
              }
            }
          }
        }
      }
      JOINT RightShoulder
      {
        OFFSET -8.99 -0.362252 -0.22
        CHANNELS 3 Zrotation Xrotation Yrotation
        JOINT RightArm
        {
          OFFSET -10.2827 -0.00338 0.322123
          CHANNELS 3 Zrotation Xrotation Yrotation
          JOINT RightForeArm
          {
            OFFSET -32.8971 0.099144 -1.42434
            CHANNELS 3 Zrotation Xrotation Yrotation
            JOINT RightHand
            {
              OFFSET -27.4921 0.085362 1.02216
              CHANNELS 3 Zrotation Xrotation Yrotation
              End Site
              {
                OFFSET -16.6312 -0.6 1.50291
              }
            }
          }
        }
      }
    }
  }
  JOINT LeftUpLeg
  {
    OFFSET 8.9458 -8.66707 0.101652
    CHANNELS 3 Zrotation Xrotation Yrotation
    JOINT LeftLeg
    {
      OFFSET 0 -44.4227 1.3727
      CHANNELS 3 Zrotation Xrotation Yrotation
      JOINT LeftFoot
      {
        OFFSET -0.253549 -42.0924 -1.46059
        CHANNELS 3 Zrotation Xrotation Yrotation
        JOINT LeftToes
        {
          OFFSET -0.04 -4.41509 8.4991
          CHANNELS 3 Zrotation Xrotation Yrotation
          End Site
          {
            OFFSET 0.08 -0.047448 9.77979
          }
        }
      }
    }
  }
}
MOTION
Frames:	17
Frame Time:	0.0166667
-970.462 95.0652 -503.823 13.2278 1.82107 99.813 -22.7573 11.13 22.9171 37.0873 -1.71992 -61.5261 55.2635 0.69094 0.705143 0.0462048 0.000533403 0.662642 -5.20298 19.0471 7.81013 3.9814e-006 0.0333383 -0.00772728 0.793839 8.01571 -10.3674 4.41391e-032 7.95139e-016 -3.18055e-015 -97.3955 -44.9303 -66.2354 -26.0673 40.7858 -72.9666 5.94551 8.04925 -19.1765 18.7941 13.0984 -13.5365 109.097 -14.6574 71.5727 19.8797 58.2311 100.494 16.3084 19.7978 1.78714 17.9495 -5.86048 -12.3145 -29.0378 -2.05943 65.5637 73.4597 -1.64088 2.83866 -5.27395e-009 1.55986e-007 -4.8394e-009 
-970.588 95.4195 -503.826 12.9927 2.18054 101.758 -21.573 11.5057 23.4786 34.4184 -2.09418 -61.5392 57.8121 1.27948 0.538508 0.0462048 0.000533403 0.662642 -4.99412 19.2371 8.12484 8.48416e-006 0.0334867 -0.0153973 0.492846 7.72177 -9.77474 -0 -2.78299e-015 -0 -100.088 -44.3091 -69.5977 -23.5092 42.9765 -75.4158 8.08579 8.75368 -26.5767 18.4689 12.6158 -14.6908 108.386 -11.998 72.5416 19.0875 56.5142 99.6631 17.1439 20.8087 0.691466 19.043 -5.29108 -10.3695 -31.4636 -2.11105 62.9311 66.1656 -2.88654 3.42165 -5.27395e-009 1.55986e-007 -4.8394e-009 
-970.742 95.8362 -503.764 12.7803 2.5773 103.651 -20.2474 11.7814 23.9148 31.4528 -2.16161 -61.0391 60.4364 1.84222 0.326009 0.0462048 0.000533403 0.662642 -4.94177 19.7976 8.24959 1.21043e-005 0.031605 -0.0228769 0.0709012 7.10792 -8.49962 -1.54487e-031 -2.78299e-015 -3.18055e-015 -104.582 -44.2477 -74.8381 -22.2438 47.0774 -77.9231 12.1879 9.08963 -34.5284 18.0888 11.8757 -15.7393 107.029 -8.63903 74.0871 18.15 53.9869 98.3874 17.9789 21.8879 -0.405227 20.3528 -4.28529 -8.66565 -33.8038 -2.13681 60.7823 56.4699 -3.84868 3.37493 -5.27395e-009 1.55986e-007 -4.8394e-009 
-970.956 96.217 -503.581 12.5953 3.13243 105.337 -19.1377 11.6622 23.493 28.9575 -2.31026 -57.7423 62.0519 2.07673 -0.0500951 0.0462048 0.000533403 0.662642 -5.43126 21.5007 7.55303 0.000146388 0.0946505 -0.0898605 -0.900158 5.3472 -4.72697 1.59028e-015 7.95139e-016 -3.18055e-015 -115.198 -45.1789 -86.5075 -27.12 56.6447 -78.1573 13.1328 4.90711 -21.1448 17.4282 10.1851 -15.7719 103.858 -3.43957 77.404 16.5403 49.1748 95.8488 18.4736 22.7655 -0.941184 22.2777 -2.69895 -7.13467 -36.0838 -2.0996 60.5641 44.9206 -2.9315 2.25085 -5.27395e-009 1.55986e-007 -4.8394e-009 
-971.258 96.4871 -503.248 12.4324 3.89001 106.791 -18.7948 11.1972 22.3802 27.6928 -2.5186 -51.8241 62.6919 1.88573 -0.357015 0.0462048 0.000533403 0.662642 -6.07664 23.0478 6.75987 0.0146077 -0.00555664 -0.0305692 -2.73079 3.92129 0.228305 0 0 -0 -128.804 -44.5323 -100.423 -44.2274 67.408 -68.7356 19.9286 8.54645 -19.2975 16.4078 8.94257 -15.7804 101.861 -0.461334 79.6899 10.6415 50.6665 97.966 13.7472 20.2233 -0.250644 23.8157 -3.96842 -4.72601 -38.196 4.02168 64.704 34.054 -2.64316 1.36182 -5.27395e-009 1.55986e-007 -4.83941e-009 
-971.703 97.5629 -502.815 12.0616 6.73507 108.191 -22.66 8.81472 20.5681 32.5929 -1.74934 -46.1659 41.4308 0.326228 0.131885 0.0462048 0.000533403 0.662642 -8.77045 24.8398 5.81303 0.0145178 -0.0110056 -0.025618 -4.43985 2.50127 4.88141 0 7.95139e-016 -0 -143.208 -41.1779 -114.418 -79.0661 72.1399 -37.9163 21.8024 7.8633 -10.9534 15.0929 7.94357 -15.5439 100.778 1.34006 81.216 7.17062 51.1852 99.2846 11.6208 18.8108 0.172046 22.0742 -5.96095 -2.07766 -38.2422 12.5746 70.3385 22.4558 -0.82567 0.254388 -5.27395e-009 1.55986e-007 -4.8394e-009 
-972.246 98.5229 -502.214 11.5588 11.2615 109.25 -27.2011 6.73569 18.8944 36.4402 0.701407 -42.2362 20.7936 -1.35044 0.462512 0.0462048 0.000533403 0.662642 -13.3016 26.4912 5.00091 0.0147769 -0.00594469 -0.0215794 -6.01179 1.57323 9.35187 -1.59028e-015 0 -0 -156.367 -35.7766 -126.115 -114.795 68.1824 -3.89854 24.7661 10.6843 -12.5242 13.6489 7.65997 -15.047 100.246 2.65201 82.2044 5.09394 51.1764 99.9892 29.7171 18.3493 3.21363 19.241 -8.03554 1.25013 -39.2641 21.3552 76.5401 11.1868 0.757466 0.0561419 -5.27395e-009 1.55986e-007 -4.8394e-009 
-972.814 99.2044 -501.541 11.0717 17.1412 109.781 -32.2242 5.39635 17.9069 38.8125 3.54195 -39.4419 0.666177 -2.43123 -0.067951 0.0462048 0.000533403 0.662642 -19.4674 28.042 4.72982 0.0151975 -0.000883797 -0.0174613 -7.5018 1.07964 13.5949 0 2.38542e-015 -0 -163.697 -31.5107 -132.657 -128.047 62.3476 9.32384 25.2688 10.3615 -9.27964 12.3586 7.93969 -14.2166 96.3718 6.47182 82.8372 1.03782 47.2252 100.946 14.9554 16.934 0.359832 15.2132 -10.0023 5.64073 -40.9352 29.8863 81.9409 0.850885 1.19612 0.216886 -5.27395e-009 1.55986e-007 -4.8394e-009 
-973.285 99.4261 -500.923 10.7505 22.0798 110.136 -35.6424 4.51067 17.0821 39.8544 6.27551 -37.253 -18.992 -2.64886 -1.0092 0.0462048 0.000533403 0.662642 -24.6668 28.9605 4.43076 0.015596 0.00470737 -0.0120734 -9.01233 0.981693 17.5487 -6.62086e-032 1.19271e-015 3.18055e-015 -167.192 -29.3124 -136.403 -131.38 58.4871 13.8642 26.0445 12.4313 -11.1345 11.3356 8.61735 -12.993 93.6271 8.98543 83.186 -1.37838 44.89 101.26 39.6516 13.7372 11.7116 11.7832 -12.406 10.8665 -41.8383 40.2275 84.5514 -10.9874 0.85637 0.00688472 -5.27395e-009 1.55986e-007 -4.8394e-009 
-973.639 99.1197 -500.393 10.6383 26.1726 110.283 -37.7635 4.16272 16.4762 39.7751 8.55749 -35.2107 -38.2296 -1.94686 -1.92758 0.0462048 0.000533403 0.662642 -28.7711 29.3254 4.04533 0.0157883 0.0099085 -0.00680532 -10.6856 1.24927 21.1585 -3.18055e-015 -7.95139e-016 -3.18055e-015 -165.132 -31.4127 -137.288 -120.046 58.7444 9.03811 23.9529 11.2396 -13.5313 10.1294 9.62361 -11.3099 90.2048 14.1329 82.8807 -1.67972 44.9086 98.1515 24.5593 15.7554 1.44632 8.70888 -14.9791 16.8239 -40.1476 51.0856 82.9439 -23.129 0.260097 -0.586801 -5.27395e-009 1.55986e-007 -4.8394e-009 
-973.903 98.9367 -500.019 10.7691 29.6158 110.176 -41.487 3.57597 16.6604 39.1697 12.7626 -33.9088 -31.9635 -3.02404 -1.75863 0.0462048 0.000533403 0.662642 -31.8314 29.253 3.58847 0.0155284 0.0142095 -0.00222646 -12.5883 1.84047 24.3821 0 2.38542e-015 -0 -159.835 -36.6013 -135.875 -99.1645 60.0246 -3.43175 22.1244 24.174 -6.78517 9.0177 10.7765 -9.43967 87.8569 17.1256 82.7368 -1.40187 44.5976 96.0782 29.953 19.2916 6.66226 6.33169 -18.9344 24.0021 -34.2775 61.5736 72.998 -19.9128 0.421336 -0.74304 -5.27395e-009 1.55986e-007 -4.8394e-009 
-974.091 98.794 -499.756 11.2384 32.6032 109.658 -44.5684 2.91553 17.0558 39.2531 16.083 -33.0193 -26.7978 -3.50494 -1.32639 0.0462048 0.000533403 0.662642 -33.8101 28.8075 3.10652 0.121774 -0.050628 -0.00351454 -14.8468 3.18815 25.8027 7.95139e-016 7.95139e-016 6.36111e-015 -151.804 -43.6142 -131.474 -72.024 58.2957 -21.5861 18.8667 12.5104 -22.8714 7.8468 12.0046 -7.44489 86.3717 18.9177 82.5285 -0.877572 44.1623 94.4153 22.0669 19.1886 1.55605 4.22937 -24.3483 32.045 -11.4832 71.7806 45.7058 -32.1803 1.22793 -0.191851 -5.27395e-009 1.55986e-007 -4.8394e-009 
-974.257 98.8565 -499.415 12.0316 35.2701 108.798 -46.9893 2.38213 17.6447 39.4162 18.6921 -32.4283 -22.2471 -3.71797 -0.92726 0.0462048 0.000533403 0.662642 -35.0365 28.1546 2.66525 0.226907 -0.115351 -0.00531213 -17.2314 5.19668 25.6429 -0 -1.19271e-015 -0 -140.111 -51.072 -122.414 -46.9377 51.0536 -37.5901 13.9842 25.7697 -6.99006 6.63405 13.2745 -5.49564 85.4658 20.2103 81.9837 -0.540683 44.1291 93.3363 25.6472 21.0243 5.19293 3.70525 -30.9082 40.7101 27.0216 72.7034 1.81852 -31.8457 3.41459 1.63512 -5.27396e-009 1.55986e-007 -4.8394e-009 
-974.466 99.0292 -498.917 15.3706 38.2796 105.328 -49.0168 2.56667 20.3878 39.3401 20.7197 -31.9935 -17.9862 -3.63193 -0.581196 0.0462048 0.000533403 0.662642 -36.729 28.3457 4.34842 0.328849 -0.181016 -0.00742125 -19.6942 7.78202 24.1127 1.10348e-032 1.98785e-016 -3.18055e-015 -122.833 -57.1961 -106.28 -29.2022 38.7392 -46.387 12.7833 17.0259 -28.4161 5.11795 14.6047 -3.57661 85.1585 21.2136 81.1946 -0.248788 44.3686 92.355 21.7928 20.1693 1.79557 5.66506 -34.8111 50.4607 46.5681 67.3156 -21.9959 -32.4969 4.74575 3.44802 -5.27395e-009 1.55986e-007 -4.8394e-009 
-974.686 99.1987 -498.258 18.821 40.7782 101.774 -50.6065 2.79847 22.8739 39.093 22.345 -31.7116 -13.9063 -3.33411 -0.30619 0.0462048 0.000533403 0.662642 -37.7398 28.3376 5.65044 0.430245 -0.248408 -0.00966957 -22.3201 10.2998 22.8604 -9.93923e-017 2.23633e-016 9.54166e-015 -99.8022 -59.1718 -82.6324 -17.8212 23.3781 -48.6427 2.90589 20.5985 -7.90638 3.4049 15.9868 -1.73772 85.178 22.0574 80.1204 -0.086381 44.9772 91.5779 23.8461 21.1759 4.09784 9.83228 -37.7179 59.9424 52.009 61.301 -30.74 -33.1643 5.95871 5.12498 -5.27395e-009 1.55986e-007 -4.8394e-009 
-974.855 99.2484 -497.507 22.332 42.8043 98.2019 -51.2424 3.10832 24.8622 38.8506 23.2365 -31.9931 -17.8124 -2.89405 -0.617118 0.0462048 0.000533403 0.662642 -38.1788 28.2327 6.5943 0.533267 -0.316696 -0.0119479 -25.0549 12.7012 21.8877 7.95139e-016 9.93923e-017 -0 -77.7059 -55.4034 -58.3548 -10.3752 6.32186 -47.0444 2.38057 13.7285 -32.4773 1.70535 17.3094 0.14616 85.3048 22.6188 78.7958 0.0811616 45.7094 90.7596 21.517 20.5882 2.00235 15.8274 -39.2745 68.6039 50.3215 55.8488 -32.2331 -33.6088 6.98872 6.42989 -5.27395e-009 1.55986e-007 -4.8394e-009 
-974.824 99.2255 -496.848 25.8626 44.352 94.6217 -51.5351 3.60278 26.5837 38.4661 24.0219 -32.2696 -21.7574 -2.23543 -0.875204 0.0462048 0.000533403 0.662642 -38.0066 28.0424 7.24178 0.641412 -0.385742 -0.014147 -27.861 14.9595 21.1679 -7.95139e-016 3.97569e-016 -3.18055e-015 -62.2449 -47.2326 -39.8308 -7.36458 -8.76804 -47.6339 -0.129146 22.8334 -7.48854 0.561995 18.1899 2.0336 85.268 22.9086 76.9866 0.247158 46.5036 90.0054 21.6799 21.8867 4.47322 22.6239 -39.5492 75.8075 44.6679 50.9495 -29.7047 -30.6775 8.26122 7.06279 -5.27394e-009 1.55986e-007 -4.83941e-009 
